<svg xmlns="http://www.w3.org/2000/svg" height="134.48" viewBox="0 0 125.25625 134.485" width="125.26"><g transform="matrix(1.25 0 0 -1.25 -115.68 483.64)"><g transform="translate(1.1737 .78246)"><path d="m134.28 304.55h-3.17l1.106 3.031h18.599l1.013-3.031h-3.208v-25.227h41.733v25.227h-6.358l-18.419 55.392h4.847v25.369h-57.202v-25.37h4.248l-18.415-55.391h-6.506v-25.227h41.732v25.227z" fill="#fff"/><path d="m132.41 281.2h-37.989v21.477h5.987l19.66 59.136h-4.973v21.628h53.459v-21.628h-5.57l19.661-59.136h5.839v-21.477h-37.991v21.477h3.936l-2.262 6.783h-21.259l-2.47-6.783h3.972v-21.477z" fill="#041e41"/><path d="m127.92 313.24h27.057l4.734-14.344h-5.291v-13.772h30.28v13.772h-4.723l-22.136 66.85 6.928-0.001v13.768h-45.749v-13.768h6.187l-22.139-66.849h-4.721v-13.772h30.131v13.772h-5.295l4.737 14.344z" fill="#fff"/><path d="m144.06 319.21-7.064 10.941-14.072-2.751 9.642 10.668-6.498 11.634 12.696-5.008 14.856 22.712-6.884-26.41 15.242-7.875-16.103-1.099-1.815-12.812z" fill="#e2231a"/><path d="m35.432 9.5918v12.535h8.6289l-6.0723 18.332 18.867 7.4395 25.057-38.307h-46.48zm46.656 0-3.2656 12.535h9.1133v-12.535h-5.8477zm-3.463 13.285-8.156 31.303 22.343 11.541-14.187-42.844zm-41.021 18.75-22.764 68.732h-5.25v12.531h32.984v-12.531h-7.5156l7.4668-22.605h22.387l-10.459-16.2-22.932 4.48 15.641-17.299-9.558-17.109zm55.68 25.52-24.576 1.6758-2.6797 18.932h13.701l7.4609 22.605h-7.5078v12.531h33.172v-12.531h-5.2598l-14.311-43.213z" transform="matrix(.8 0 0 -.8 92.546 385.31)" fill="#041e41"/></g></g></svg>
