<svg width="202" height="59" viewBox="0 0 202 59" fill="none" xmlns="http://www.w3.org/2000/svg">
<path fill-rule="evenodd" clip-rule="evenodd" d="M104.487 29.3176L109.364 14.5991C110.358 12.4756 112.449 11.1262 115.061 11.1262H134.981L150.648 0.874224H116.264C113.849 0.874224 101.638 1.1627 98.5566 10.4419L91.4386 31.9058C89.3412 39.9638 94.8185 45.0089 102.299 45.0089H133.972L137.376 34.7585H110.642C106.454 34.7585 103.463 33.1126 104.486 29.316L104.487 29.3176ZM155.504 29.316L160.379 14.5991C161.375 12.4756 163.464 11.1262 166.077 11.1262H185.996L201.666 0.874224H167.281C164.866 0.874224 152.656 1.1627 149.575 10.4419L142.457 31.9058C140.359 39.9638 145.837 45.0089 153.318 45.0089H184.989L188.393 34.7585H161.66C157.472 34.7585 154.481 33.1126 155.505 29.316H155.504ZM72.674 28.4778H55.9793L77.5236 12.0012L72.674 28.4762V28.4778ZM74.6648 0.866211L17.2466 45.0169H34.2414L43.6422 37.874L71.9512 30.9314L67.8114 45.0025L80.9568 44.9736L93.3697 0.866211H74.6648Z" fill="white"/>
<path fill-rule="evenodd" clip-rule="evenodd" d="M180.854 58.2771L183.329 50.8169H9.70415L0 58.2771H180.854ZM187.028 54.7978V55.2129H185.847V58.2771H185.365V55.2129H184.184V54.7978H187.028ZM187.728 54.7994H188.411L189.419 57.7386L190.419 54.7978H191.095V58.2771H190.642V56.2257C190.642 56.152 190.642 56.0366 190.648 55.8716L190.651 55.3443L189.651 58.2771H189.18L188.169 55.3443V55.4517C188.169 55.535 188.172 55.6664 188.177 55.8395C188.183 56.0158 188.183 56.144 188.183 56.2241V58.2771H187.728V54.7994Z" fill="white"/>
</svg>
