<?xml version="1.0" encoding="UTF-8"?>
<svg xmlns="http://www.w3.org/2000/svg" viewBox="0 0 595 231" width="595" height="231" role="img" aria-label="Big Ten Conference logo, all white">
  <title>Big Ten Conference Logo - White</title>
  <path fill="#FFFFFF" fill-rule="evenodd" d="M 389.0 15.0 L 381.0 23.0 L 376.0 30.0 L 372.0 38.0 L 369.0 47.0 L 369.0 52.0 L 368.0 53.0 L 368.0 178.0 L 369.0 179.0 L 369.0 184.0 L 372.0 193.0 L 381.0 208.0 L 388.0 215.0 L 395.0 220.0 L 405.0 225.0 L 412.0 227.0 L 416.0 227.0 L 417.0 228.0 L 543.0 228.0 L 557.0 224.0 L 565.0 220.0 L 573.0 214.0 L 578.0 209.0 L 585.0 199.0 L 590.0 187.0 L 591.0 178.0 L 592.0 177.0 L 592.0 95.0 L 499.0 95.0 L 499.0 136.0 L 517.0 136.0 L 518.0 137.0 L 518.0 166.0 L 517.0 168.0 L 513.0 171.0 L 447.0 171.0 L 442.0 167.0 L 441.0 164.0 L 441.0 67.0 L 442.0 64.0 L 447.0 60.0 L 513.0 60.0 L 518.0 64.0 L 518.0 79.0 L 592.0 79.0 L 592.0 54.0 L 591.0 53.0 L 591.0 48.0 L 588.0 38.0 L 579.0 23.0 L 572.0 16.0 L 565.0 11.0 L 555.0 6.0 L 549.0 4.0 L 545.0 4.0 L 544.0 3.0 L 416.0 3.0 L 400.0 8.0 Z M 235.0 3.0 L 235.0 60.0 L 261.0 60.0 L 262.0 61.0 L 262.0 170.0 L 261.0 171.0 L 235.0 171.0 L 235.0 228.0 L 361.0 228.0 L 361.0 171.0 L 336.0 171.0 L 335.0 170.0 L 335.0 3.0 Z M 1.0 3.0 L 1.0 60.0 L 26.0 60.0 L 27.0 61.0 L 27.0 170.0 L 26.0 171.0 L 1.0 171.0 L 1.0 228.0 L 178.0 228.0 L 179.0 227.0 L 187.0 226.0 L 197.0 222.0 L 205.0 217.0 L 217.0 205.0 L 224.0 193.0 L 228.0 180.0 L 229.0 167.0 L 228.0 166.0 L 227.0 154.0 L 220.0 138.0 L 214.0 130.0 L 199.0 118.0 L 187.0 113.0 L 198.0 106.0 L 210.0 94.0 L 217.0 81.0 L 220.0 71.0 L 220.0 66.0 L 221.0 65.0 L 221.0 55.0 L 220.0 54.0 L 220.0 48.0 L 218.0 41.0 L 214.0 32.0 L 207.0 22.0 L 202.0 17.0 L 194.0 11.0 L 184.0 6.0 L 174.0 4.0 L 173.0 3.0 Z M 100.0 134.0 L 101.0 133.0 L 144.0 133.0 L 147.0 136.0 L 147.0 169.0 L 144.0 171.0 L 101.0 171.0 L 100.0 170.0 Z M 100.0 61.0 L 101.0 60.0 L 143.0 60.0 L 145.0 62.0 L 145.0 90.0 L 141.0 93.0 L 102.0 93.0 L 100.0 91.0 Z"/>
</svg>
