<svg width="500" height="500" viewBox="0 0 500 500" fill="none" xmlns="http://www.w3.org/2000/svg">
<path d="M402.184 98.2222C402.311 93.888 402.375 89.5226 402.375 85.1575C402.375 78.1348 402.216 71.1122 401.93 64.0895C381.927 57.6047 359.384 52.3218 335.76 48.4626L393.834 177.781C396.215 165.191 398.088 152.41 399.453 139.567H441.302C437.968 173.7 431.395 207.136 421.648 239.656C416.059 258.414 409.423 276.825 401.739 294.951L269.4 0.316335C284.672 0.854105 300.231 2.05618 315.726 3.89092C361.098 9.07878 405.963 19.5495 441.651 34.5439C443.207 51.3095 444 68.3285 444 85.1575C444 89.5226 443.937 93.888 443.81 98.2222H402.184ZM262.859 160.287H221.964L250 97.8427L308.359 227.762L384.784 300.044L250 0L115.629 299.127L262.859 160.287ZM250 194.546C250 194.546 347.509 286.505 388.087 324.75C386.53 327.881 384.975 330.981 383.356 334.082C350.747 396.779 304.644 454.162 250 500C195.356 454.162 149.254 396.811 116.645 334.082C115.026 330.981 113.47 327.881 111.914 324.75L250 194.515V194.546ZM250 257.434C212.502 257.434 184.307 276.224 168.272 295.647C183.037 283.373 200.659 275.433 224.123 275.433C247.587 275.433 266.702 285.081 281.021 298.304C271.56 294.255 261.145 292.009 250.191 292.009C250.128 292.009 250.095 292.009 250.032 292.009C249.969 292.009 249.936 292.009 249.873 292.009C224.695 292.009 202.342 303.966 188.085 322.504C177.925 335.664 171.861 352.144 171.861 370.018C171.861 386.404 176.94 401.588 185.609 414.146C185.768 414.368 185.926 414.589 186.085 414.811C186.593 415.538 187.101 416.234 187.609 416.93C200.341 433.854 219.773 445.4 241.967 447.646C242.285 447.678 242.571 447.678 242.888 447.709C243.872 447.804 244.888 447.867 245.904 447.931C247.175 447.994 248.476 448.025 249.778 448.025C249.809 448.025 249.873 448.025 249.905 448.025H250.222C250.222 448.025 250.476 448.025 250.603 448.025C251.715 448.025 252.826 447.994 253.906 447.931C254.064 447.931 254.255 447.931 254.414 447.931C264.161 447.457 274.131 445.4 284.133 440.339C284.228 440.307 284.324 440.244 284.418 440.212C294.896 435.151 304.041 427.812 311.248 418.828C314.169 415.38 316.995 411.489 319.567 407.408C320.075 406.586 320.774 405.289 321.313 404.435C329.029 390.832 333.506 374.446 333.188 355.909C332.712 328.04 318.139 293.781 281.719 275.782C303.406 278.755 319.091 286.221 337.189 301.657C307.089 266.165 261.24 230.545 249.969 222.289V257.402L250 257.434ZM122.36 241.269L98.2292 294.951C90.5772 276.857 83.9094 258.446 78.3529 239.751C63.4933 190.054 56 138.334 56 85.1259C56 68.2968 56.7938 51.2779 58.3496 34.5439C94.0381 19.5495 138.903 9.11048 184.307 3.85929C199.77 2.08781 215.36 0.885739 230.6 0.347969L140.141 201.727H111.12C114.295 215.076 118.042 228.236 122.36 241.269ZM103.055 160.287H114.041L164.336 48.3677C140.649 52.2269 118.042 57.5414 97.9752 64.0262C97.6577 71.0805 97.499 78.1348 97.499 85.1575C97.499 110.591 99.3405 135.676 103.024 160.319M305.819 394.597H256.636V393.933L299.627 364.861V328.704C290.07 324.908 277.053 323.2 266.638 323.2C256.223 323.2 242.984 324.908 233.426 328.704V355.308H255.334V345.47H277.687V354.39L232.855 384.663V416.866H288.8C296.072 410.888 301.945 403.296 305.819 394.597ZM200.785 416.866H223.805V325.161H200.785V416.866Z" fill="white"/>
</svg>
